<svg width="38" height="50" viewBox="0 0 38 50" fill="none" xmlns="http://www.w3.org/2000/svg">
<g clip-path="url(#clip0_248_25)">
<g filter="url(#filter0_d_248_25)">
<path fill-rule="evenodd" clip-rule="evenodd" d="M4.58579 15.3137L17.3137 2.58579C18.0948 1.80474 19.3611 1.80474 20.1421 2.58579L32.8701 15.3137C33.6511 16.0948 33.6511 17.3611 32.8701 18.1421C32.089 18.9232 30.8227 18.9232 30.0416 18.1421L18.7279 6.82843L7.41421 18.1421C6.63317 18.9232 5.36684 18.9232 4.58579 18.1421C3.80474 17.3611 3.80474 16.0948 4.58579 15.3137Z" fill="white"/>
<path fill-rule="evenodd" clip-rule="evenodd" d="M17.8137 15.7931C18.5948 15.012 19.8611 15.012 20.6421 15.7931L33.3701 28.521C34.1511 29.302 34.1511 30.5684 33.3701 31.3494C32.589 32.1305 31.3227 32.1305 30.5416 31.3494L19.2279 20.0357L7.91421 31.3494C7.13316 32.1305 5.86684 32.1305 5.08579 31.3494C4.30474 30.5684 4.30474 29.302 5.08579 28.521L17.8137 15.7931Z" fill="white"/>
<path fill-rule="evenodd" clip-rule="evenodd" d="M5.08579 42.521L17.8137 29.7931C18.5948 29.012 19.8611 29.012 20.6421 29.7931L33.3701 42.521C34.1511 43.302 34.1511 44.5684 33.3701 45.3494C32.589 46.1305 31.3227 46.1305 30.5416 45.3494L19.2279 34.0357L7.91421 45.3494C7.13317 46.1305 5.86684 46.1305 5.08579 45.3494C4.30474 44.5684 4.30474 43.302 5.08579 42.521Z" fill="white"/>
</g>
</g>
<defs>
<filter id="filter0_d_248_25" x="0" y="0" width="37.9551" height="51.9353" filterUnits="userSpaceOnUse" color-interpolation-filters="sRGB">
<feFlood flood-opacity="0" result="BackgroundImageFix"/>
<feColorMatrix in="SourceAlpha" type="matrix" values="0 0 0 0 0 0 0 0 0 0 0 0 0 0 0 0 0 0 127 0" result="hardAlpha"/>
<feOffset dy="2"/>
<feGaussianBlur stdDeviation="2"/>
<feComposite in2="hardAlpha" operator="out"/>
<feColorMatrix type="matrix" values="0 0 0 0 1 0 0 0 0 1 0 0 0 0 1 0 0 0 0.54 0"/>
<feBlend mode="normal" in2="BackgroundImageFix" result="effect1_dropShadow_248_25"/>
<feBlend mode="normal" in="SourceGraphic" in2="effect1_dropShadow_248_25" result="shape"/>
</filter>
<clipPath id="clip0_248_25">
<rect width="38" height="50" fill="white"/>
</clipPath>
</defs>
</svg>
